<svg width="78" height="45" viewBox="0 0 78 45" fill="none" xmlns="http://www.w3.org/2000/svg">
<g clip-path="url(#clip0_635_1543)">
<path d="M7 24.1H8.5V26.9H3.2V24.1H4.7V22.4H0V24.1H1.5V32.5H0V34.2H4.7V32.5H3.2V28.6H8.5V32.5H7V34.2H11.7V32.5H10.2V24.1H11.7V22.4H7M63.8 32.4H59.2V28.5H63.2V26.8H59.2V24H63.9V25.6H65.5V22.3H55.9V24H57.5V32.4H55.9V34.1H65.5V30.2H63.8M23.6 30.2H21.9V32.4H17.3V28.5H21.3V26.8H17.3V24H22V25.6H23.6V22.3H14V24H15.6V32.4H14V34.1H23.6M59.6 21.8H63L62.1 20.8H58.6M74.8 27.4C73.6 27.1 72.8 27.1 71.6 26.7C70.5 26.3 70.3 25.7 70.3 25.2C70.3 24.8 70.8 23.6 72.5 23.6C74.2 23.6 75.3 24.7 75.4 25.7H77V22.3H75.4V23.2C75.4 23.2 75.3 23.1 75.2 22.9C74.7 22.4 73.7 22 72.3 22C70.6 22 68.5 23.1 68.5 25.2C68.5 27.2 70 27.9 71.2 28.3C72.4 28.6 73.1 28.6 74.1 28.9C75.1 29.2 75.8 29.8 75.8 30.7C75.8 31.6 75.3 32.7 73.1 32.7C70.9 32.7 70 31.5 69.8 29.8H68.2V33.9H69.8V33.1L69.7 32.9C69.7 32.9 69.8 33 69.9 33.2C70.7 33.8 71.8 34.2 73.2 34.2C74.7 34.2 77.4 33.4 77.4 30.6C77.6 28.8 76.6 27.9 74.8 27.4ZM48.9 32.4V34.1H53.7V32.4H52.1V24H53.7V22.3H49.4L46.6 29.1L46.5 29.4L46.4 29.1L43.6 22.3H39.3V24H40.9V32.4H39.3V34.1H44.1V32.4H42.6V24.2L42.7 24.6L46 32.4H47L50.3 24.6L50.4 24.2V32.5M16.3 17.5V17.9H17.9C17.7 17.8 17.6 17.7 17.4 17.5H16.3ZM59.6 17.5H58.8C58.6 17.5 58.4 17.7 58.4 17.9H59.7L59.6 17.5ZM16.3 19H59.6V18.2H31.7C31 18.5 30.1 18.5 29.4 18.2H21C20.2 18.6 19.3 18.5 18.5 18.2H16.3V19ZM28.5 17.5H22C22 17.5 21.7 17.8 21.6 17.9H29C28.7 17.7 28.6 17.6 28.5 17.5Z" fill="#F6F1EB"/>
<path d="M17 14.5C16.9 14.8 16.9 15 16.9 15.3C16.9 16.8 18.2 18.1 19.8 18C21.3 18 22.5 16.8 22.5 15.3C22.5 15 22.4 14.7 22.3 14.4C22.6 14.3 22.9 14.3 23.2 14.2C23.3 14.2 23.3 14.1 23.2 14.1C22.8 14 22.3 13.9 21.9 13.8C21.4 13.1 20.5 12.6 19.6 12.6C19.2 12.6 18.9 12.7 18.6 12.8C18.5 12.6 18.5 12.3 18.6 12C18.9 11.5 19.5 11.4 20 11.3C20.2 11.3 20.6 11.3 20.6 11.4C20.7 11.5 20.9 11.5 21.1 11.4C21.3 11.5 21.3 11.5 21.5 11.6C23.3 12.2 25.3 12.5 27.2 12.2C27.5 12.5 27.7 13 27.9 13.4C28 13.5 28 13.3 29 13.3C29.3 13.3 29.8 13.3 30.1 13.3C29.3 13.4 28.7 13.8 28.3 14.4C27.7 14.6 27.2 14.8 27 14.9C27 14.9 27 15 27.2 15C27.5 15.1 27.8 15.1 28.1 15.2C28.1 15.3 28.1 15.5 28.1 15.6C28.1 17 29.2 18.1 30.6 18.1C32 18.1 33.1 17 33.1 15.6C33.1 15.2 33 14.8 32.8 14.4C33.1 14.3 33.4 14.2 33.8 14C34.1 14.1 34.3 14.3 34.4 14.5C34.6 14.7 34.9 14.6 35.1 14.6C35.4 14.5 35.5 14.2 35.5 13.9C35.5 13.8 35.5 13.6 35.6 13.5C36 12.6 37.6 12.5 38.4 12.3C38.4 12.3 38 12.8 37.7 12.9C37.6 14.2 37.1 15.4 37.1 16.7C37.5 16.7 37.5 17.2 37.6 17.4C37.5 17.6 37.3 17.4 37.1 17.5C36.5 17.2 37.2 16.6 36.8 16.2C37 15.1 37.5 14.1 37.4 13C37.2 13 37.2 13.2 37.1 13.3C37 14.4 36.7 15.4 36.4 16.3C36.5 16.4 36.7 16.4 36.7 16.6C36.3 16.8 36.7 17.2 36.6 17.5H32.8L32.4 17.9H38.3L38.4 17.7C37.5 16.8 37.9 15.4 38.3 14.4L39.3 13C40.1 12.7 40.7 11.6 41.5 11.3C41.5 11.7 41 11.9 40.7 12.2C40.4 12.9 39.4 13 39.3 13.8C39.7 14.2 40.2 14.5 40.7 14.9C41.2 15.2 41 15.8 41.4 16.1C41.5 16.2 41.4 16.3 41.3 16.4C40.9 16.5 40.9 16.8 41.2 17C41.4 17.1 41.5 17.3 41.5 17.4H38.8C38.8 17.5 38.9 17.6 39 17.8H54C54.1 17.6 53.9 17.3 53.8 17.1C52.7 16.7 52.7 15.7 52.7 14.6C52.7 14.6 52.6 14.5 52.7 14.2C52.5 14.1 51.8 12.3 52.2 10.9L52.4 10.4C52.6 10.1 52.4 9.9 52.5 9.6L55.7 9C55.8 9 55.7 8.8 55.7 8.8L54.7 9C53.9 8.7 52.8 8 52.1 7C52.3 5.4 52.2 4.2 52.1 3.3C52.6 2.9 52.9 2.6 52.9 2.6C53.2 2.8 53.3 2.7 53.3 2.6C53.2 2.5 52.8 2.3 52.9 2.1C53.2 2.2 53.3 2.1 53.3 1.9L52.7 2V1.9C52.8 1.8 53 1.9 53.2 1.9C53.4 1.8 53.2 1.6 53.2 1.5C52.8 1 52 1 51.5 0.7C51.4 0.4 51.3 0.3 51.1 0.2C51 0 50.3 0 50.1 0C50 0 49.7 0.3 49.7 0.3C49.3 0.4 49 0.2 48.6 0C48.6 0 48.7 0.4 49.1 0.6C48.8 0.7 48.6 1 48.5 1.4C48.1 1.5 48 2 48.1 2.2C47.7 2.4 47.7 2.7 47.9 3.1C47.6 3.3 47.6 3.7 47.7 3.9C47.4 4.1 47.7 4.6 47.7 4.9C48.5 4.7 49.6 6.6 51.1 6.8C51.4 5.5 51 4.8 50.7 4.2C51 4 51.2 3.8 51.5 3.6C51.7 4.4 51.8 5.7 51.6 7C51.5 7 51.4 6.9 51.3 6.9C51.3 6.9 51.5 7.2 51.5 7.3C51.5 7.3 51 7.6 50 7.2C49.7 7.8 46.4 9.3 46.4 9.3C46.5 10.2 47 10.8 47.4 11.3C48.1 11.8 48.9 12.1 49.8 12.3C50 12.8 50.6 14.4 50.7 14.7C50.8 15 50.9 15 50.9 15C51 15.1 51.3 15.6 51.3 15.9L51.4 16.8C51.4 17 51.7 16.8 51.7 17L51.6 17.6H41.6C41.7 16.9 41.4 16.3 41.6 15.7C41.2 15 40.1 14.5 40.3 13.6C40.8 12.9 42.5 12.2 42.1 11.3C43.6 10.5 44.4 11.8 45.8 11.7C46.3 11.7 46.8 11.6 47.3 11.5C46.7 11 46.2 10.3 45.9 9.7C42.9 10.9 40.1 11.9 36.8 12.5L36.6 12.4C36.4 12.4 32.8 13.2 31.9 13.6C31.7 13.5 31.4 13.3 31.1 13.3H31.2C31.5 13.3 32 13.1 32.3 13C33.7 12.5 34.2 10.5 34.8 9.3C35.3 11.2 36.6 11.4 37.3 11.2L37.4 11.8C37.4 11.8 38 11.8 38.5 11.6C38.5 11.5 38.4 11.2 38.3 10.8C38.6 10.7 38.7 10.5 38.9 10.5C38.9 11 39 11.4 38.8 11.6L40.4 11.2C40.7 9.8 41.6 7.8 43.1 6.4C41.1 5.6 39.6 6.5 39.2 6.9C37.3 7.5 37.2 10.1 37.3 11.1C37 11.2 35.6 11.6 34.9 9.2C35.2 8 35.9 7 36.8 6.2C36.9 6.1 36.8 6 36.6 6.1C35 7.2 34.4 9.2 33.5 10.9C32.8 11.9 31.9 12.5 30.5 12.4C28.8 12.4 27.9 10.6 27.1 9.4C25.9 6.7 22.7 7.7 20.3 7.1C20.2 7 19.9 6.3 19.5 6.3C19.2 6.3 19.5 6.6 19.3 6.7C19 6.6 18.8 6.4 18.4 6.4C18.2 6.4 18.1 6.7 18.1 6.9C18.3 7.8 19.2 8.1 19.9 8.4C20.2 8.8 20.1 10.1 19.8 10.6C19.5 11.1 18.4 10.9 18.2 12.1C18.2 12.3 18.2 12.6 18.3 12.7C17.9 12.9 17.5 13.3 17.2 13.7C16.7 13.8 16.3 13.9 15.8 14.1C15.7 14.1 15.7 14.2 15.8 14.2C16.3 14.4 16.7 14.4 17 14.5ZM52 7.8C52.4 8.2 53.4 8.9 54 9.1L52.2 9.4C52.4 8.7 51.7 8.4 52 7.8ZM52.2 1.7C52.3 1.7 52.5 1.7 52.5 1.8C52.5 1.8 52.5 1.9 52.5 2C52.4 2 52.2 2 52.2 1.9C52.1 1.8 52.1 1.7 52.2 1.7ZM52.2 2.1C52.2 2.2 52.3 2.4 52.4 2.5C52.4 2.6 52.1 2.9 51.7 3.2C51.6 2.7 51.5 2.4 51.5 2.3C51.5 2.2 52 2.1 52.2 2.1ZM50.5 0.5C50.6 0.5 50.7 0.5 50.7 0.5C50.7 0.5 50.7 0.6 50.7 0.7L50.5 0.8C50.5 0.8 50.3 0.7 50.3 0.6C50.4 0.6 50.4 0.5 50.5 0.5ZM50.7 4C50.5 3.6 50.3 3.1 50.4 2.5C50.6 2.5 50.9 2.6 51.3 2.5C51.3 2.5 51.4 2.9 51.5 3.5C51.2 3.6 50.9 3.8 50.7 4ZM48 11.4C47.4 11.1 47.8 11.3 47.9 11.2C48.9 11.7 49.4 11.6 50.2 11.5C50.3 11.6 50.5 11.8 50.5 12C49.5 12.2 48.8 11.9 48 11.4ZM51.6 16.4C51.5 15.9 51.5 15.6 51.3 15.3C51.1 14.8 50.6 13.4 50.2 12.2C50.4 12 50.6 12.1 50.7 12.7C50.8 13.2 51 13.6 51.1 14C51.3 14.4 51.4 15 51.5 15.3C51.5 15.3 51.6 15.3 51.7 15.5C52 16.4 52.1 16.6 52.1 17C52.2 17.3 52.7 17.1 52.6 17.5H51.6H52C51.9 17.1 52.1 16.7 51.6 16.4ZM31.8 17.2C31.5 17.4 31.2 17.5 30.8 17.6L30.7 17.5L30.6 16.2C30.6 16.2 30.7 16.2 30.8 16.1C30.8 16.1 30.8 16.1 30.9 16.1L31.7 17.1C31.8 17.1 31.8 17.2 31.8 17.2ZM30.5 17.6C30.2 17.6 29.8 17.5 29.6 17.3C29.6 17.3 29.6 17.2 29.6 17.1L30.3 16H30.4L30.5 17.3C30.6 17.5 30.6 17.6 30.5 17.6ZM28.8 15L28.7 14.9C28.8 14.7 28.8 14.6 29 14.4C29.2 14.4 29.3 14.3 29.5 14.3L30 15C29.6 15 29.3 15.1 29 15.1L28.8 15ZM30.3 13.5L30.4 13.6V13.7C30.1 13.8 29.7 13.8 29.4 13.9V13.8C29.7 13.7 30 13.6 30.3 13.5ZM30.2 14.9L29.6 14.2C29.9 14.1 30.2 14.1 30.4 14V14.8C30.4 14.9 30.3 14.9 30.2 14.9ZM30.1 15.1C30.1 15.2 30 15.2 30 15.2C30 15.2 30 15.2 29.9 15.2L29.5 15.1C29.8 15.2 29.9 15.2 30.1 15.1ZM30.6 14.8V14C30.9 13.9 31.3 13.9 31.6 13.8V13.9L31.1 14.7C30.9 14.7 30.8 14.8 30.6 14.8ZM31.7 14L31.8 13.9C31.9 14 32.1 14.1 32.2 14.3C31.9 14.4 31.6 14.5 31.3 14.6L31.7 14ZM30.6 13.7C30.6 13.6 30.6 13.5 30.7 13.5C30.9 13.5 31.1 13.5 31.3 13.6C31 13.7 30.8 13.7 30.6 13.7ZM27.6 14.9C27.5 14.9 27.5 14.8 27.6 14.9C27.8 14.7 28.1 14.6 28.3 14.5C28.2 14.6 28.2 14.8 28.1 15C28 15 27.8 15 27.6 14.9ZM28.6 15.2C28.8 15.2 28.9 15.2 29.1 15.2L30 15.4C30 15.4 30 15.5 30 15.6L28.8 16.1C28.8 16.1 28.7 16.1 28.6 16.1C28.5 15.9 28.5 15.7 28.5 15.5C28.5 15.5 28.5 15.3 28.6 15.2ZM28.7 16.5L28.8 16.4L30 15.9L30.1 16C30.1 16 30.1 16 30.1 16.1L29.4 17.2L29.3 17.3C29.1 17 28.9 16.8 28.7 16.5ZM32 17C32 17 31.9 17 31.9 16.9L31.1 15.9C31.1 15.9 31.1 15.8 31.2 15.8C31.2 15.8 31.2 15.8 31.3 15.8L32.5 16.1L32.6 16.2C32.4 16.5 32.3 16.8 32 17ZM32.6 16C32.6 16 32.5 16 32.4 16L31.2 15.7V15.6C31.2 15.6 31.2 15.6 31.2 15.5L32.4 15C32.4 15 32.5 15 32.6 15C32.7 15.2 32.7 15.4 32.7 15.6C32.6 15.7 32.6 15.8 32.6 16ZM32.4 14.7L31.1 15.3L31 15.2C31 15.2 31 15.2 31 15.1L31.1 14.9C31.5 14.8 31.9 14.7 32.3 14.5C32.4 14.6 32.4 14.6 32.4 14.7ZM35.7 12.9C35.2 13.3 35.4 13.8 35.1 13.9C35 13.9 34.3 14 34.2 14.1C34 13.9 33.7 13.7 33.4 13.6C34 13.2 35.1 13 35.7 12.9ZM33.5 13.9C33.4 14 33.1 14.1 32.6 14.2C32.5 14 32.4 13.9 32.2 13.8C32.8 13.7 33.2 13.8 33.5 13.9ZM39.4 6.9C38.6 7.8 38.7 9 38.8 10C38.6 10.1 38.4 10.3 38.2 10.3C38.1 9.1 38.3 7.3 39.4 6.9ZM18.7 7.3C18.6 7.1 18.4 6.8 18.5 6.6C18.6 6.5 18.9 6.6 19 6.6C19.1 6.7 20 7.2 20.3 7.2C22.2 7.7 24.6 7 26 8.3C26.1 8.4 26.1 8.4 26.1 8.5C23.9 7.2 20.6 9.4 18.7 7.3ZM20.4 9.8C20.6 9.9 20.6 10.1 20.8 10.3C21.1 10.8 21.6 10.9 21.9 11.3C21.8 11.3 21.7 11.3 21.6 11.3C21.4 11.3 21.3 11.2 21.2 11.1C21.1 11 20.9 10.9 20.8 11C20.7 11 20.3 11 20.1 10.9C20.1 10.6 20.5 10.2 20.4 9.8ZM18.2 13.8L18.8 14.4C18.4 14.4 18 14.4 17.6 14.4V14.3C17.7 14.1 17.8 14 17.9 13.9C18 13.8 18.1 13.8 18.2 13.8ZM21.6 13.9C21.7 14 21.7 14.1 21.8 14.2C21.5 14.2 21.2 14.3 20.9 14.3L21.3 13.9C21.5 13.9 21.6 13.9 21.6 13.9ZM21.2 13.8L20.6 14.3C20.4 14.3 20.3 14.3 20.1 14.3L20.4 13.6C20.7 13.6 21 13.6 21.2 13.8C21.3 13.8 21.3 13.8 21.2 13.8ZM21.1 17.1C20.9 17.3 20.6 17.4 20.3 17.5C20.3 17.5 20.2 17.4 20.1 17.3L19.9 16C19.9 16 20 16 20 15.9L20.9 16.9C21.1 17 21.1 17.1 21.1 17.1ZM19.1 14.8C19.1 14.9 19.1 14.9 19 14.9L18 14.5C18.3 14.5 18.6 14.5 18.9 14.5C19 14.6 19.1 14.8 19.1 14.8ZM20.1 14.7L20 14.6V14.5H20.4L20.1 14.7C20.2 14.7 20.2 14.7 20.1 14.7ZM19.9 14.4C19.8 14.4 19.7 14.4 19.6 14.4L19.5 13.6H19.6C19.8 13.6 20 13.6 20.1 13.6L19.9 14.4ZM19.3 13.7L19.4 14.4C19.3 14.4 19.1 14.4 19 14.4L18.4 13.7C18.7 13.7 19 13.7 19.3 13.7ZM19.5 14.6C19.4 14.6 19.4 14.7 19.4 14.7L19.3 14.6C19.3 14.6 19.4 14.6 19.5 14.6ZM17.4 14.7C17.4 14.7 17.5 14.6 17.7 14.6L19 15.1V15.2L17.7 15.4C17.6 15.4 17.5 15.4 17.5 15.3C17.5 15.2 17.5 15.2 17.5 15.1C17.3 15.1 17.4 14.9 17.4 14.7ZM17.4 15.9C17.4 15.8 17.5 15.7 17.6 15.7L18.9 15.5V15.6L18 16.5C17.9 16.6 17.8 16.6 17.7 16.5C17.6 16.3 17.5 16.1 17.4 15.9ZM18 16.9C18 16.9 18 16.7 18.1 16.6L19.2 15.8L19.3 15.9L18.8 17.2C18.8 17.3 18.6 17.4 18.6 17.4C18.4 17.2 18.2 17.1 18 16.9ZM19.1 17.5C19.1 17.5 19 17.4 19 17.2L19.5 15.9H19.6L19.9 17.2C19.9 17.3 19.9 17.4 19.8 17.4C19.7 17.4 19.7 17.4 19.6 17.4C19.5 17.6 19.3 17.6 19.1 17.5ZM21.4 16.8C21.4 16.8 21.2 16.8 21.1 16.7L20.2 15.7C20.2 15.7 20.2 15.6 20.3 15.6L21.6 16.1C21.7 16.2 21.8 16.3 21.8 16.3C21.7 16.5 21.6 16.7 21.4 16.8ZM21.8 16.2C21.8 16.2 21.8 16.1 21.9 16.1L21.8 16.2ZM22 15.8C22 15.8 21.9 15.9 21.7 15.9L20.4 15.4V15.3L21.8 15.1C21.9 15.1 22 15.1 22 15.2V15.3C22 15.4 22 15.6 22 15.8ZM22 14.7C22 14.8 21.9 14.9 21.8 14.9L20.4 15.1C20.4 15.1 20.4 15 20.3 15L20.7 14.7C21.1 14.7 21.5 14.6 21.9 14.6C21.9 14.5 21.9 14.6 22 14.7ZM22.7 14C22.8 14 22.8 14.1 22.7 14.1C22.6 14.1 22.4 14.2 22.3 14.2C22.2 14.1 22.2 14 22.1 13.9C22.3 13.9 22.5 13.9 22.7 14ZM20.4 13.5L20.5 13.3C20.5 13.2 20.7 13.1 20.7 13.1C20.9 13.2 21.1 13.3 21.3 13.5C21 13.5 20.7 13.5 20.4 13.5ZM20.3 13C20.3 13 20.4 13.2 20.4 13.3L20.3 13.5C20.1 13.5 19.9 13.5 19.7 13.5C19.6 13.5 19.6 13.5 19.5 13.5L19.4 13.2C19.4 13.1 19.4 13 19.5 13C19.6 13 19.6 13 19.7 13C19.9 12.9 20.1 12.9 20.3 13ZM19 13C19.1 13 19.1 13.1 19.2 13.2V13.4C19.1 13.3 19 13.2 19 13ZM19 13.5C18.8 13.5 18.6 13.5 18.3 13.6C18.3 13.5 18.3 13.4 18.3 13.4C18.4 13.3 18.5 13.3 18.6 13.2C18.7 13.3 18.8 13.4 19 13.5ZM16.6 14.1C16.8 14 17 14 17.2 13.9C17.1 14 17.1 14.1 17 14.3C16.8 14.3 16.7 14.3 16.5 14.2C16.5 14.2 16.5 14.2 16.6 14.1ZM57.9 7.5C58 7.6 58 7.6 58.1 7.7C58.1 7.7 58.1 7.7 58.1 7.6C58.1 7.5 58 7.4 57.9 7.5Z" fill="#F6F1EB"/>
<path d="M56.2 17.5H54C54 17.6 54.1 17.8 54.2 17.9H56.6L57.3 17.6C57.4 17.3 57.2 17 57.2 16.8C57.2 16.1 56.8 15.4 56.6 14.7C56.7 14.6 56.9 14.2 57.1 14.3C57.6 15.1 57.7 16.1 57.6 17.2C57.5 17.5 57.1 17.7 57.1 17.9C57.1 18 57.7 17.9 57.9 17.7C57.9 17.5 58.2 17.3 58.3 17.3C58.4 17 58.2 17 58.3 16.8C58.4 16.7 58.3 15.3 58.2 15.1C58.2 15.1 58.2 15.1 58.1 15.1C58 14.8 58.3 14.4 58.4 14.1L59.2 14C59.1 13.3 58.9 12.6 58.7 11.9C58.8 11.7 59 11.6 59.1 11.5C59.9 11 59.2 10.1 59.2 9.4C59.1 9.1 58.6 8.8 58.5 8.4C58.6 8.5 58.7 8.4 58.7 8.5C58.9 8.3 58.9 8.1 58.8 7.8C59.2 7.4 59.4 7.2 59.4 7.1C59.4 6.7 58.8 6.2 58.5 6.2C58.3 6.3 58.2 6.5 57.8 6.8C57.8 6.8 57.4 6.7 57.2 6.8C57.1 6.9 57.1 7.2 57.3 7.4C57.3 7.5 57.2 7.5 57.2 7.6C57.2 7.7 57.2 7.7 57.2 7.7C57.3 7.8 57.3 7.9 57.2 8C57.1 8.2 57.3 8.3 57.4 8.3C57.4 8.3 57.4 8.3 57.5 8.4C57.5 8.6 56.9 8.9 56.9 9.1C56.8 9.5 56.6 9.5 56.3 11C56.3 11.4 56.3 11.7 56.3 11.9C56 12.8 55.7 13.3 55.5 13.9C55.3 14.4 56.4 15.9 56.4 16.9C56.4 17.4 56.2 17.4 56.2 17.5ZM57.9 15.9C57.8 15.8 57.8 15.6 57.8 15.4C57.9 15.3 58.1 15.4 58.1 15.4C58.3 15.9 58.3 16 57.9 15.9ZM57.9 8.8L58 8.7C58.3 8.5 58.1 8.6 57.8 8.5C57.7 8.4 57.7 8.3 57.7 8.2C57.7 8 57.6 8 57.6 7.9C57.6 7.9 57.6 7.8 57.7 7.7C57.8 7.6 57.8 7.3 57.9 7.3C58.5 7.3 58.3 7.6 58.4 7.6C58.4 7.7 58.7 8 58.8 8.1C58.8 8.4 58.5 8.2 58.6 8.6C58.6 9.2 57.9 9.1 57.6 9.6C57.4 9 57.9 9 57.9 8.8ZM57.3 11.3C57.5 11.4 57.6 11.6 57.7 11.6C57.8 11.8 57.5 11.8 57.4 11.9C57.2 11.9 57.1 11.7 57 11.8H56.8C56.9 11.7 57.1 11.4 57.3 11.3ZM55.9 14.3C55.8 13.9 56.4 13.3 56.7 12C56.8 11.9 56.9 12.3 57.1 12.2C57.4 12.2 57.3 13.1 57.6 12.5C57.6 12.3 57.6 12 57.8 11.9C58 11.9 58.1 12 58.2 12.1L57.9 12.6C58.5 12.6 57.7 13.6 58.5 13.4C58.5 13.8 58.3 14.8 58.1 14.7C58 14.1 57.9 14.4 57.9 14.5C57.9 14.7 57.9 14.9 58 15.1C58 15.1 57.8 15.1 57.8 15.2C57.4 14.6 57.4 13.7 57.1 13L57 13.1C57 13.5 56.8 14.1 56.5 14.3C56.3 14.4 57 14.3 56.4 14.6C56.6 14.7 56.4 14.9 56.2 14.9C56.1 14.7 56 14.5 55.9 14.3ZM56.5 15.7C56.4 15.6 56.3 15.3 56.2 15.2L56.5 15.1C56.6 15.2 56.7 15.4 56.7 15.6C56.7 15.6 56.6 15.7 56.5 15.7ZM46 9C46 8.3 46.2 7.8 45.9 7.1C45.9 6.8 46.1 6.6 46.1 6.3L45.6 6.4C45.5 7 45.4 7.1 45.5 7.7C45.6 8.3 45.7 8.8 46 9ZM40.8 10.9C42.7 10.4 44.1 9.9 45.6 9.2C44.9 7.8 45.1 7.4 45.1 6.5C45.1 6.5 44.3 6.5 43.3 6.3C42.3 6.9 41 9.5 40.8 10.9ZM47.4 11.3C47.5 11.3 47.3 11.2 47.4 11.3ZM49.7 7C48.9 6.4 48.3 5.1 47.4 5.2C47.3 4.2 46.9 2.6 48.2 0.9C48.4 0.8 48.7 0.8 48.8 0.7C48.3 0.6 47.5 1 47 0.7C47 0.7 47.2 1.1 47.5 1.2C47.4 1.4 47 1.6 47.2 2C46.8 2.3 46.9 2.7 47.1 2.9C46.9 3.1 46.7 3.5 47 3.8C46.6 4.2 47.1 4.5 47.2 4.6C47 5 47.2 5.3 47.2 5.3C47.2 5.6 46.7 6 46.5 6.1C46.3 6.8 46.4 8.1 46.4 8.9C47.6 8.3 48.8 7.8 49.7 7ZM35.9 30C35.9 29.3 35.4 28.5 34.8 28.1C34.6 28 34.5 28 34.3 27.9C34.5 27.9 34.7 27.9 34.9 27.8C35.5 27.5 36.3 26.7 36.3 25.3C36.3 24.3 35.9 23.4 35.1 22.9C34.4 22.4 33.6 22.3 32.7 22.3H26.2V24H27.7V32.4H26.2V34.1H30.9V32.4H29.4V28.7H32.6C33.7 28.7 34.1 29.4 34.2 30.1L34.3 34.1H37.5V32.4H36L35.9 30ZM32.9 27.1H29.3V24H32.7C33 24 33.5 24 33.8 24.2C34.2 24.4 34.6 24.9 34.6 25.6C34.7 26.5 33.9 27.1 32.9 27.1ZM25.6 38.2H23.4V44.9H24.4V42H25.5C27.1 42 27.8 41.2 27.8 40.1C27.8 39.1 27.1 38.2 25.6 38.2ZM25.6 41.2H24.4V39.1H25.6C26.5 39.1 26.8 39.6 26.8 40.1C26.8 40.8 26.3 41.2 25.6 41.2ZM31.6 38.2L28.6 44.9H29.7L30.5 42.9H33.4L34.2 44.9H35.3L32.2 38.2H31.6ZM30.9 42.1L31.9 39.5L33 42.1H30.9ZM45.6 38.2H46.6V44.9H45.6V38.2ZM50.7 39.8C50.7 39.3 51.2 39 51.9 39C52.4 39 53 39.2 53.6 39.7V38.6C53.1 38.3 52.5 38.1 52 38.1C50.7 38.1 49.8 38.8 49.8 39.9C49.8 41.7 53 41.9 53 43.3C53 43.7 52.6 44.1 51.8 44.1C51.1 44.1 50.4 43.8 49.9 43.1V44.3C50.5 44.7 51.1 44.9 51.9 44.9C53.1 44.9 53.9 44.1 53.9 43.1C53.8 41.1 50.7 41.1 50.7 39.8ZM42.1 43.6C41.6 42.8 41.2 42.1 40.5 41.7C41.3 41.4 41.7 40.8 41.7 40.1C41.7 38.9 40.8 38.2 39.4 38.2H37.6V44.9H38.6V42H39C39.5 42 39.9 42.2 40.9 43.5L41.8 44.9H43L42.5 44.1C42.3 44 42.2 43.8 42.1 43.6ZM39.2 41.1H38.6V39H39.2C40.2 39 40.6 39.4 40.6 40C40.6 40.6 40.3 41.1 39.2 41.1Z" fill="#F6F1EB"/>
<path d="M71.6 26.7C72.8 27.1 73.6 27.1 74.8 27.4C76.6 27.9 77.6 28.8 77.4 30.6C77.4 33.4 74.7 34.2 73.2 34.2C71.8 34.2 70.7 33.8 69.9 33.2C69.8 33 69.7 32.9 69.7 32.9L69.8 33.1V33.9H68.2V29.8H69.8C70 31.5 70.9 32.7 73.1 32.7C75.3 32.7 75.8 31.6 75.8 30.7C75.8 29.8 75.1 29.2 74.1 28.9C73.1 28.6 72.4 28.6 71.2 28.3C70 27.9 68.5 27.2 68.5 25.2C68.5 23.1 70.6 22 72.3 22C73.7 22 74.7 22.4 75.2 22.9C75.3 23.1 75.4 23.2 75.4 23.2V22.3H77V25.7H75.4C75.3 24.7 74.2 23.6 72.5 23.6C70.8 23.6 70.3 24.8 70.3 25.2C70.3 25.7 70.5 26.3 71.6 26.7Z" fill="#F6F1EB"/>
<path d="M46.6 38.2H45.6V44.9H46.6V38.2Z" fill="#F6F1EB"/>
<path d="M51.9 39C51.2 39 50.7 39.3 50.7 39.8C50.7 41.1 53.8 41.1 53.9 43.1C53.9 44.1 53.1 44.9 51.9 44.9C51.1 44.9 50.5 44.7 49.9 44.3V43.1C50.4 43.8 51.1 44.1 51.8 44.1C52.6 44.1 53 43.7 53 43.3C53 41.9 49.8 41.7 49.8 39.9C49.8 38.8 50.7 38.1 52 38.1C52.5 38.1 53.1 38.3 53.6 38.6V39.7C53 39.2 52.4 39 51.9 39Z" fill="#F6F1EB"/>
<path fill-rule="evenodd" clip-rule="evenodd" d="M35.9 30C35.9 29.3 35.4 28.5 34.8 28.1C34.7 28.05 34.625 28.025 34.55 28C34.475 27.975 34.4 27.95 34.3 27.9C34.5 27.9 34.7 27.9 34.9 27.8C35.5 27.5 36.3 26.7 36.3 25.3C36.3 24.3 35.9 23.4 35.1 22.9C34.4 22.4 33.6 22.3 32.7 22.3H26.2V24H27.7V32.4H26.2V34.1H30.9V32.4H29.4V28.7H32.6C33.7 28.7 34.1 29.4 34.2 30.1L34.3 34.1H37.5V32.4H36L35.9 30ZM29.3 27.1H32.9C33.9 27.1 34.7 26.5 34.6 25.6C34.6 24.9 34.2 24.4 33.8 24.2C33.5 24 33 24 32.7 24H29.3V27.1Z" fill="#F6F1EB"/>
<path fill-rule="evenodd" clip-rule="evenodd" d="M25.6 38.2H23.4V44.9H24.4V42H25.5C27.1 42 27.8 41.2 27.8 40.1C27.8 39.1 27.1 38.2 25.6 38.2ZM24.4 41.2H25.6C26.3 41.2 26.8 40.8 26.8 40.1C26.8 39.6 26.5 39.1 25.6 39.1H24.4V41.2Z" fill="#F6F1EB"/>
<path fill-rule="evenodd" clip-rule="evenodd" d="M31.6 38.2L28.6 44.9H29.7L30.5 42.9H33.4L34.2 44.9H35.3L32.2 38.2H31.6ZM31.9 39.5L30.9 42.1H33L31.9 39.5Z" fill="#F6F1EB"/>
<path d="M17 14.5C16.9 14.8 16.9 15 16.9 15.3C16.9 16.8 18.2 18.1 19.8 18C21.3 18 22.5 16.8 22.5 15.3C22.5 15 22.4 14.7 22.3 14.4C22.6 14.3 22.9 14.3 23.2 14.2C23.3 14.2 23.3 14.1 23.2 14.1C22.8 14 22.3 13.9 21.9 13.8C21.4 13.1 20.5 12.6 19.6 12.6C19.2 12.6 18.9 12.7 18.6 12.8C18.5 12.6 18.5 12.3 18.6 12C18.9 11.5 19.5 11.4 20 11.3C20.2 11.3 20.6 11.3 20.6 11.4C20.7 11.5 20.9 11.5 21.1 11.4C21.3 11.5 21.3 11.5 21.5 11.6C23.3 12.2 25.3 12.5 27.2 12.2C27.5 12.5 27.7 13 27.9 13.4C28 13.5 28 13.3 29 13.3C29.3 13.3 29.8 13.3 30.1 13.3C29.3 13.4 28.7 13.8 28.3 14.4C27.7 14.6 27.2 14.8 27 14.9C27 14.9 27 15 27.2 15C27.5 15.1 27.8 15.1 28.1 15.2C28.1 15.3 28.1 15.5 28.1 15.6C28.1 17 29.2 18.1 30.6 18.1C32 18.1 33.1 17 33.1 15.6C33.1 15.2 33 14.8 32.8 14.4C33.1 14.3 33.4 14.2 33.8 14C34.1 14.1 34.3 14.3 34.4 14.5C34.6 14.7 34.9 14.6 35.1 14.6C35.4 14.5 35.5 14.2 35.5 13.9C35.5 13.8 35.5 13.6 35.6 13.5C36 12.6 37.6 12.5 38.4 12.3C38.4 12.3 38 12.8 37.7 12.9C37.6 14.2 37.1 15.4 37.1 16.7C37.5 16.7 37.5 17.2 37.6 17.4C37.5 17.6 37.3 17.4 37.1 17.5C36.5 17.2 37.2 16.6 36.8 16.2C37 15.1 37.5 14.1 37.4 13C37.2 13 37.2 13.2 37.1 13.3C37 14.4 36.7 15.4 36.4 16.3C36.5 16.4 36.7 16.4 36.7 16.6C36.3 16.8 36.7 17.2 36.6 17.5H32.8L32.4 17.9H38.3L38.4 17.7C37.5 16.8 37.9 15.4 38.3 14.4L39.3 13C40.1 12.7 40.7 11.6 41.5 11.3C41.5 11.7 41 11.9 40.7 12.2C40.4 12.9 39.4 13 39.3 13.8C39.7 14.2 40.2 14.5 40.7 14.9C41.2 15.2 41 15.8 41.4 16.1C41.5 16.2 41.4 16.3 41.3 16.4C40.9 16.5 40.9 16.8 41.2 17C41.4 17.1 41.5 17.3 41.5 17.4H38.8C38.8 17.5 38.9 17.6 39 17.8H54C54.1 17.6 53.9 17.3 53.8 17.1C52.7 16.7 52.7 15.7 52.7 14.6C52.7 14.6 52.6 14.5 52.7 14.2C52.5 14.1 51.8 12.3 52.2 10.9L52.4 10.4C52.6 10.1 52.4 9.9 52.5 9.6L55.7 9C55.8 9 55.7 8.8 55.7 8.8L54.7 9C53.9 8.7 52.8 8 52.1 7C52.3 5.4 52.2 4.2 52.1 3.3C52.6 2.9 52.9 2.6 52.9 2.6C53.2 2.8 53.3 2.7 53.3 2.6C53.2 2.5 52.8 2.3 52.9 2.1C53.2 2.2 53.3 2.1 53.3 1.9L52.7 2V1.9C52.8 1.8 53 1.9 53.2 1.9C53.4 1.8 53.2 1.6 53.2 1.5C52.8 1 52 1 51.5 0.7C51.4 0.4 51.3 0.3 51.1 0.2C51 0 50.3 0 50.1 0C50 0 49.7 0.3 49.7 0.3C49.3 0.4 49 0.2 48.6 0C48.6 0 48.7 0.4 49.1 0.6C48.8 0.7 48.6 1 48.5 1.4C48.1 1.5 48 2 48.1 2.2C47.7 2.4 47.7 2.7 47.9 3.1C47.6 3.3 47.6 3.7 47.7 3.9C47.4 4.1 47.7 4.6 47.7 4.9C48.5 4.7 49.6 6.6 51.1 6.8C51.4 5.5 51 4.8 50.7 4.2C51 4 51.2 3.8 51.5 3.6C51.7 4.4 51.8 5.7 51.6 7C51.5 7 51.4 6.9 51.3 6.9C51.3 6.9 51.5 7.2 51.5 7.3C51.5 7.3 51 7.6 50 7.2C49.7 7.8 46.4 9.3 46.4 9.3C46.5 10.2 47 10.8 47.4 11.3C48.1 11.8 48.9 12.1 49.8 12.3C50 12.8 50.6 14.4 50.7 14.7C50.8 15 50.9 15 50.9 15C51 15.1 51.3 15.6 51.3 15.9L51.4 16.8C51.4 17 51.7 16.8 51.7 17L51.6 17.6H41.6C41.7 16.9 41.4 16.3 41.6 15.7C41.2 15 40.1 14.5 40.3 13.6C40.8 12.9 42.5 12.2 42.1 11.3C43.6 10.5 44.4 11.8 45.8 11.7C46.3 11.7 46.8 11.6 47.3 11.5C46.7 11 46.2 10.3 45.9 9.7C42.9 10.9 40.1 11.9 36.8 12.5L36.6 12.4C36.4 12.4 32.8 13.2 31.9 13.6C31.7 13.5 31.4 13.3 31.1 13.3H31.2C31.5 13.3 32 13.1 32.3 13C33.7 12.5 34.2 10.5 34.8 9.3C35.3 11.2 36.6 11.4 37.3 11.2L37.4 11.8C37.4 11.8 38 11.8 38.5 11.6C38.5 11.5 38.4 11.2 38.3 10.8C38.6 10.7 38.7 10.5 38.9 10.5C38.9 11 39 11.4 38.8 11.6L40.4 11.2C40.7 9.8 41.6 7.8 43.1 6.4C41.1 5.6 39.6 6.5 39.2 6.9C37.3 7.5 37.2 10.1 37.3 11.1C37 11.2 35.6 11.6 34.9 9.2C35.2 8 35.9 7 36.8 6.2C36.9 6.1 36.8 6 36.6 6.1C35 7.2 34.4 9.2 33.5 10.9C32.8 11.9 31.9 12.5 30.5 12.4C28.8 12.4 27.9 10.6 27.1 9.4C25.9 6.7 22.7 7.7 20.3 7.1C20.2 7 19.9 6.3 19.5 6.3C19.2 6.3 19.5 6.6 19.3 6.7C19 6.6 18.8 6.4 18.4 6.4C18.2 6.4 18.1 6.7 18.1 6.9C18.3 7.8 19.2 8.1 19.9 8.4C20.2 8.8 20.1 10.1 19.8 10.6C19.5 11.1 18.4 10.9 18.2 12.1C18.2 12.3 18.2 12.6 18.3 12.7C17.9 12.9 17.5 13.3 17.2 13.7C16.7 13.8 16.3 13.9 15.8 14.1C15.7 14.1 15.7 14.2 15.8 14.2C16.3 14.4 16.7 14.4 17 14.5ZM52 7.8C52.4 8.2 53.4 8.9 54 9.1L52.2 9.4C52.4 8.7 51.7 8.4 52 7.8ZM52.2 1.7C52.3 1.7 52.5 1.7 52.5 1.8C52.5 1.8 52.5 1.9 52.5 2C52.4 2 52.2 2 52.2 1.9C52.1 1.8 52.1 1.7 52.2 1.7ZM52.2 2.1C52.2 2.2 52.3 2.4 52.4 2.5C52.4 2.6 52.1 2.9 51.7 3.2C51.6 2.7 51.5 2.4 51.5 2.3C51.5 2.2 52 2.1 52.2 2.1ZM50.5 0.5C50.6 0.5 50.7 0.5 50.7 0.5C50.7 0.5 50.7 0.6 50.7 0.7L50.5 0.8C50.5 0.8 50.3 0.7 50.3 0.6C50.4 0.6 50.4 0.5 50.5 0.5ZM50.7 4C50.5 3.6 50.3 3.1 50.4 2.5C50.6 2.5 50.9 2.6 51.3 2.5C51.3 2.5 51.4 2.9 51.5 3.5C51.2 3.6 50.9 3.8 50.7 4ZM48 11.4C47.4 11.1 47.8 11.3 47.9 11.2C48.9 11.7 49.4 11.6 50.2 11.5C50.3 11.6 50.5 11.8 50.5 12C49.5 12.2 48.8 11.9 48 11.4ZM51.6 16.4C51.5 15.9 51.5 15.6 51.3 15.3C51.1 14.8 50.6 13.4 50.2 12.2C50.4 12 50.6 12.1 50.7 12.7C50.8 13.2 51 13.6 51.1 14C51.3 14.4 51.4 15 51.5 15.3C51.5 15.3 51.6 15.3 51.7 15.5C52 16.4 52.1 16.6 52.1 17C52.2 17.3 52.7 17.1 52.6 17.5H51.6H52C51.9 17.1 52.1 16.7 51.6 16.4ZM31.8 17.2C31.5 17.4 31.2 17.5 30.8 17.6L30.7 17.5L30.6 16.2C30.6 16.2 30.7 16.2 30.8 16.1C30.8 16.1 30.8 16.1 30.9 16.1L31.7 17.1C31.8 17.1 31.8 17.2 31.8 17.2ZM30.5 17.6C30.2 17.6 29.8 17.5 29.6 17.3C29.6 17.3 29.6 17.2 29.6 17.1L30.3 16H30.4L30.5 17.3C30.6 17.5 30.6 17.6 30.5 17.6ZM28.8 15L28.7 14.9C28.8 14.7 28.8 14.6 29 14.4C29.2 14.4 29.3 14.3 29.5 14.3L30 15C29.6 15 29.3 15.1 29 15.1L28.8 15ZM30.3 13.5L30.4 13.6V13.7C30.1 13.8 29.7 13.8 29.4 13.9V13.8C29.7 13.7 30 13.6 30.3 13.5ZM30.2 14.9L29.6 14.2C29.9 14.1 30.2 14.1 30.4 14V14.8C30.4 14.9 30.3 14.9 30.2 14.9ZM30.1 15.1C30.1 15.2 30 15.2 30 15.2C30 15.2 30 15.2 29.9 15.2L29.5 15.1C29.8 15.2 29.9 15.2 30.1 15.1ZM30.6 14.8V14C30.9 13.9 31.3 13.9 31.6 13.8V13.9L31.1 14.7C30.9 14.7 30.8 14.8 30.6 14.8ZM31.7 14L31.8 13.9C31.9 14 32.1 14.1 32.2 14.3C31.9 14.4 31.6 14.5 31.3 14.6L31.7 14ZM30.6 13.7C30.6 13.6 30.6 13.5 30.7 13.5C30.9 13.5 31.1 13.5 31.3 13.6C31 13.7 30.8 13.7 30.6 13.7ZM27.6 14.9C27.5 14.9 27.5 14.8 27.6 14.9C27.8 14.7 28.1 14.6 28.3 14.5C28.2 14.6 28.2 14.8 28.1 15C28 15 27.8 15 27.6 14.9ZM28.6 15.2C28.8 15.2 28.9 15.2 29.1 15.2L30 15.4C30 15.4 30 15.5 30 15.6L28.8 16.1C28.8 16.1 28.7 16.1 28.6 16.1C28.5 15.9 28.5 15.7 28.5 15.5C28.5 15.5 28.5 15.3 28.6 15.2ZM28.7 16.5L28.8 16.4L30 15.9L30.1 16C30.1 16 30.1 16 30.1 16.1L29.4 17.2L29.3 17.3C29.1 17 28.9 16.8 28.7 16.5ZM32 17C32 17 31.9 17 31.9 16.9L31.1 15.9C31.1 15.9 31.1 15.8 31.2 15.8C31.2 15.8 31.2 15.8 31.3 15.8L32.5 16.1L32.6 16.2C32.4 16.5 32.3 16.8 32 17ZM32.6 16C32.6 16 32.5 16 32.4 16L31.2 15.7V15.6C31.2 15.6 31.2 15.6 31.2 15.5L32.4 15C32.4 15 32.5 15 32.6 15C32.7 15.2 32.7 15.4 32.7 15.6C32.6 15.7 32.6 15.8 32.6 16ZM32.4 14.7L31.1 15.3L31 15.2C31 15.2 31 15.2 31 15.1L31.1 14.9C31.5 14.8 31.9 14.7 32.3 14.5C32.4 14.6 32.4 14.6 32.4 14.7ZM35.7 12.9C35.2 13.3 35.4 13.8 35.1 13.9C35 13.9 34.3 14 34.2 14.1C34 13.9 33.7 13.7 33.4 13.6C34 13.2 35.1 13 35.7 12.9ZM33.5 13.9C33.4 14 33.1 14.1 32.6 14.2C32.5 14 32.4 13.9 32.2 13.8C32.8 13.7 33.2 13.8 33.5 13.9ZM39.4 6.9C38.6 7.8 38.7 9 38.8 10C38.6 10.1 38.4 10.3 38.2 10.3C38.1 9.1 38.3 7.3 39.4 6.9ZM18.7 7.3C18.6 7.1 18.4 6.8 18.5 6.6C18.6 6.5 18.9 6.6 19 6.6C19.1 6.7 20 7.2 20.3 7.2C22.2 7.7 24.6 7 26 8.3C26.1 8.4 26.1 8.4 26.1 8.5C23.9 7.2 20.6 9.4 18.7 7.3ZM20.4 9.8C20.6 9.9 20.6 10.1 20.8 10.3C21.1 10.8 21.6 10.9 21.9 11.3C21.8 11.3 21.7 11.3 21.6 11.3C21.4 11.3 21.3 11.2 21.2 11.1C21.1 11 20.9 10.9 20.8 11C20.7 11 20.3 11 20.1 10.9C20.1 10.6 20.5 10.2 20.4 9.8ZM18.2 13.8L18.8 14.4C18.4 14.4 18 14.4 17.6 14.4V14.3C17.7 14.1 17.8 14 17.9 13.9C18 13.8 18.1 13.8 18.2 13.8ZM21.6 13.9C21.7 14 21.7 14.1 21.8 14.2C21.5 14.2 21.2 14.3 20.9 14.3L21.3 13.9C21.5 13.9 21.6 13.9 21.6 13.9ZM21.2 13.8L20.6 14.3C20.4 14.3 20.3 14.3 20.1 14.3L20.4 13.6C20.7 13.6 21 13.6 21.2 13.8C21.3 13.8 21.3 13.8 21.2 13.8ZM21.1 17.1C20.9 17.3 20.6 17.4 20.3 17.5C20.3 17.5 20.2 17.4 20.1 17.3L19.9 16C19.9 16 20 16 20 15.9L20.9 16.9C21.1 17 21.1 17.1 21.1 17.1ZM19.1 14.8C19.1 14.9 19.1 14.9 19 14.9L18 14.5C18.3 14.5 18.6 14.5 18.9 14.5C19 14.6 19.1 14.8 19.1 14.8ZM20.1 14.7L20 14.6V14.5H20.4L20.1 14.7C20.2 14.7 20.2 14.7 20.1 14.7ZM19.9 14.4C19.8 14.4 19.7 14.4 19.6 14.4L19.5 13.6H19.6C19.8 13.6 20 13.6 20.1 13.6L19.9 14.4ZM19.3 13.7L19.4 14.4C19.3 14.4 19.1 14.4 19 14.4L18.4 13.7C18.7 13.7 19 13.7 19.3 13.7ZM19.5 14.6C19.4 14.6 19.4 14.7 19.4 14.7L19.3 14.6C19.3 14.6 19.4 14.6 19.5 14.6ZM17.4 14.7C17.4 14.7 17.5 14.6 17.7 14.6L19 15.1V15.2L17.7 15.4C17.6 15.4 17.5 15.4 17.5 15.3C17.5 15.2 17.5 15.2 17.5 15.1C17.3 15.1 17.4 14.9 17.4 14.7ZM17.4 15.9C17.4 15.8 17.5 15.7 17.6 15.7L18.9 15.5V15.6L18 16.5C17.9 16.6 17.8 16.6 17.7 16.5C17.6 16.3 17.5 16.1 17.4 15.9ZM18 16.9C18 16.9 18 16.7 18.1 16.6L19.2 15.8L19.3 15.9L18.8 17.2C18.8 17.3 18.6 17.4 18.6 17.4C18.4 17.2 18.2 17.1 18 16.9ZM19.1 17.5C19.1 17.5 19 17.4 19 17.2L19.5 15.9H19.6L19.9 17.2C19.9 17.3 19.9 17.4 19.8 17.4C19.7 17.4 19.7 17.4 19.6 17.4C19.5 17.6 19.3 17.6 19.1 17.5ZM21.4 16.8C21.4 16.8 21.2 16.8 21.1 16.7L20.2 15.7C20.2 15.7 20.2 15.6 20.3 15.6L21.6 16.1C21.7 16.2 21.8 16.3 21.8 16.3C21.7 16.5 21.6 16.7 21.4 16.8ZM21.8 16.2C21.8 16.2 21.8 16.1 21.9 16.1L21.8 16.2ZM22 15.8C22 15.8 21.9 15.9 21.7 15.9L20.4 15.4V15.3L21.8 15.1C21.9 15.1 22 15.1 22 15.2V15.3C22 15.4 22 15.6 22 15.8ZM22 14.7C22 14.8 21.9 14.9 21.8 14.9L20.4 15.1C20.4 15.1 20.4 15 20.3 15L20.7 14.7C21.1 14.7 21.5 14.6 21.9 14.6C21.9 14.5 21.9 14.6 22 14.7ZM22.7 14C22.8 14 22.8 14.1 22.7 14.1C22.6 14.1 22.4 14.2 22.3 14.2C22.2 14.1 22.2 14 22.1 13.9C22.3 13.9 22.5 13.9 22.7 14ZM20.4 13.5L20.5 13.3C20.5 13.2 20.7 13.1 20.7 13.1C20.9 13.2 21.1 13.3 21.3 13.5C21 13.5 20.7 13.5 20.4 13.5ZM20.3 13C20.3 13 20.4 13.2 20.4 13.3L20.3 13.5C20.1 13.5 19.9 13.5 19.7 13.5C19.6 13.5 19.6 13.5 19.5 13.5L19.4 13.2C19.4 13.1 19.4 13 19.5 13C19.6 13 19.6 13 19.7 13C19.9 12.9 20.1 12.9 20.3 13ZM19 13C19.1 13 19.1 13.1 19.2 13.2V13.4C19.1 13.3 19 13.2 19 13ZM19 13.5C18.8 13.5 18.6 13.5 18.3 13.6C18.3 13.5 18.3 13.4 18.3 13.4C18.4 13.3 18.5 13.3 18.6 13.2C18.7 13.3 18.8 13.4 19 13.5ZM16.6 14.1C16.8 14 17 14 17.2 13.9C17.1 14 17.1 14.1 17 14.3C16.8 14.3 16.7 14.3 16.5 14.2C16.5 14.2 16.5 14.2 16.6 14.1ZM57.9 7.5C58 7.6 58 7.6 58.1 7.7C58.1 7.7 58.1 7.7 58.1 7.6C58.1 7.5 58 7.4 57.9 7.5Z" fill="#F6F1EB"/>
</g>
<defs>
<clipPath id="clip0_635_1543">
<rect width="77.6" height="45" fill="white"/>
</clipPath>
</defs>
</svg>
